<svg viewBox="0 0 72 72" xmlns="http://www.w3.org/2000/svg"><path d="m35.9896 7c14.625 0 29.0104 11.5833 29.0104 28.9583 0 16-12.7511 29.0417-29.0104 29.0417-13.8445 0-26.0666-9.3958-26.0666-23.8838 0-10.4059 8.4357-18.8416 18.8416-18.8416 8.3247 0 15.0733 6.7485 15.0733 15.0733 0 6.6598-5.3988 12.0586-12.0586 12.0586-5.3278 0-9.6469-4.3191-9.6469-9.6469 0-4.2623 3.4552-7.7175 7.7175-7.7175 3.4098 0 6.174 2.7642 6.174 6.174 0 2.7278-2.2114 4.9392-4.9392 4.9392-2.1823 0-3.9578-1.7691-3.9514-3.9514.0053-1.8015 1.213-2.8736 2.8239-2.4426.2681.0717.6559.2764.9406.633.3572.4473.4259.9031.4636 1.3122" fill="none" stroke="#000" stroke-linecap="round" stroke-linejoin="round" stroke-width="2"/></svg>