<svg width="458" height="566" viewBox="0 0 458 566" fill="none" xmlns="http://www.w3.org/2000/svg">
<path fill-rule="evenodd" clip-rule="evenodd" d="M42.7836 453.31C41.7992 450.741 38.1653 450.741 37.181 453.31L8.20147 528.926C7.4486 530.891 8.89899 533 11.0028 533H19.5748C18.8699 532.209 18.5859 531.057 19.0023 529.947L37.1733 481.491C38.1467 478.895 41.818 478.895 42.7913 481.491L60.9623 529.947C61.3786 531.057 61.0946 532.209 60.3898 533H68.9618C71.0656 533 72.516 530.891 71.7631 528.926L42.7836 453.31Z" fill="#403368"/>
<path d="M37.1707 492.557C38.14 489.952 41.8248 489.952 42.7941 492.557L51.0343 514.704C51.7636 516.664 50.314 518.75 48.2227 518.75H31.7422C29.6508 518.75 28.2012 516.664 28.9305 514.704L37.1707 492.557Z" fill="#545EFD"/>
<rect x="83.4824" y="458" width="11" height="69" rx="5.5" fill="#403368"/>
<path d="M147.982 500.536C147.982 511.425 139.357 520.036 128.982 520.036C118.607 520.036 109.982 511.425 109.982 500.536C109.982 489.647 118.607 481.036 128.982 481.036C139.357 481.036 147.982 489.647 147.982 500.536Z" stroke="#403368" stroke-width="13"/>
<path d="M132.482 481.536C145.503 483.244 151.803 500.94 157.982 520.036" stroke="#545EFD" stroke-width="13" stroke-linecap="round"/>
<path fill-rule="evenodd" clip-rule="evenodd" d="M209.538 509.475C207.266 511.682 204.223 513 200.982 513C194.316 513 188.482 507.419 188.482 500C188.482 492.581 194.316 487 200.982 487C204.767 487 208.283 488.799 210.616 491.711C210.572 491.641 210.527 491.571 210.482 491.5C217.047 492.784 220.479 491.623 221.478 484.529C216.832 478.14 209.382 474 200.982 474C186.899 474 175.482 485.641 175.482 500C175.482 514.359 186.899 526 200.982 526C209.382 526 216.832 521.86 221.478 515.471C220.5 508.367 217.963 505.682 209.538 509.475Z" fill="#403368"/>
<path fill-rule="evenodd" clip-rule="evenodd" d="M267.557 491.524C267.547 491.521 267.537 491.518 267.527 491.515C265.256 489.314 262.217 488 258.982 488C252.615 488 247.008 493.091 246.517 500.011L246.482 500L245.501 523.073L245.439 523.034C244.28 524.819 242.269 526 239.982 526C236.393 526 233.482 523.09 233.482 519.5V501V500C233.482 499.669 233.507 499.345 233.555 499.027C234.543 485.589 245.55 475 258.982 475C266.331 475 272.954 478.17 277.608 483.241C277.913 483.536 278.187 483.85 278.426 484.178C278.431 484.183 278.435 484.188 278.439 484.193C278.439 484.194 278.439 484.194 278.439 484.195C279.185 485.224 279.582 486.383 279.482 487.5C279.482 491.09 276.572 494 272.982 494C270.679 493.943 268.721 492.979 267.557 491.524Z" fill="#403368"/>
<path d="M297.482 480V520" stroke="#403368" stroke-width="13" stroke-linecap="round"/>
<path d="M334.482 468C333.504 509.164 333.857 516.951 352.982 520" stroke="#403368" stroke-width="13" stroke-linecap="round"/>
<path d="M319.482 483.5H348.982" stroke="#545EFD" stroke-width="13" stroke-linecap="round"/>
<path d="M419.982 481.5V558.5" stroke="#555EF9" stroke-width="13" stroke-linecap="round"/>
<path fill-rule="evenodd" clip-rule="evenodd" d="M373.482 482.389V499.86C373.482 514.495 385.347 526.36 399.982 526.36C414.618 526.36 426.482 514.495 426.482 499.86V482.389H426.463C426.476 482.215 426.482 482.039 426.482 481.861C426.482 478.072 423.572 475 419.982 475C416.393 475 413.482 478.072 413.482 481.861C413.482 482.039 413.489 482.215 413.501 482.389H413.482V499.86C413.482 507.316 407.438 513.36 399.982 513.36C392.527 513.36 386.482 507.316 386.482 499.86V482.389H386.463C386.476 482.215 386.482 482.039 386.482 481.861C386.482 478.072 383.572 475 379.982 475C376.393 475 373.482 478.072 373.482 481.861C373.482 482.039 373.489 482.215 373.501 482.389H373.482Z" fill="#403368"/>
<path d="M399.482 526.525C399.648 526.519 399.815 526.516 399.982 526.516C407.438 526.516 413.482 532.56 413.482 540.016V557.827H413.501C413.489 558.005 413.482 558.184 413.482 558.365C413.482 562.228 416.392 565.36 419.982 565.36C423.572 565.36 426.482 562.228 426.482 558.365C426.482 558.184 426.476 558.005 426.463 557.827H426.482V540.016C426.482 531.99 422.914 524.797 417.278 519.938C412.636 523.94 406.592 526.36 399.982 526.36C399.815 526.36 399.649 526.358 399.482 526.355V526.525Z" fill="#545EFD"/>
<path d="M417.278 519.938C412.636 515.936 406.592 513.516 399.982 513.516C393.373 513.516 387.328 515.936 382.687 519.938C387.328 523.94 393.373 526.36 399.982 526.36C406.592 526.36 412.636 523.94 417.278 519.938Z" fill="#545EFD"/>
<mask id="mask0_153_702" style="mask-type:alpha" maskUnits="userSpaceOnUse" x="3" y="3" width="451" height="451">
<circle cx="228.798" cy="228.798" r="225" transform="rotate(0.975615 228.798 228.798)" fill="#4846B4"/>
</mask>
<g mask="url(#mask0_153_702)">
<circle cx="228.662" cy="236.797" r="250" transform="rotate(0.975615 228.662 236.797)" fill="white"/>
<path d="M209.162 183.673L181.166 183.197L140.402 169.001L192.323 115.377L271.496 135.228L291.293 206.075L209.162 183.673Z" fill="#2B2346"/>
<path d="M276.617 304.34L235.5 269.5C306.757 272.187 344.554 275.114 378.46 302.439C362.808 310.514 337.83 310.541 276.617 304.34Z" fill="#58184E"/>
<path d="M395.421 316.864C357.521 279.775 318.876 272.371 235.694 270.138L278.749 237.153L299.067 248L334.054 249.81L334.139 244.81C378.127 264.989 391.981 280.592 395.421 316.864Z" fill="#811055"/>
<path d="M289.481 230.494L234.965 277.5L155.897 279.784L201 208L289.481 230.494Z" fill="#403368"/>
<path d="M279.249 237.875L206.126 215.126L212.295 205.23L287.978 224.521L279.249 237.875Z" fill="#6551A3"/>
<path d="M213 205.5L165.5 271.428L125 203L213 205.5Z" fill="#6551A3"/>
<path d="M287.434 305.478L197.5 320.5L171.196 269.491L248.809 266.299L287.434 305.478Z" fill="#6551A3"/>
<path d="M87.1725 270.109L54.2544 470.577L157.832 378.828L87.1725 270.109Z" fill="#463775"/>
<path d="M86.8297 272L112.398 311.114L221 340L125 203L94.6623 230.228L86.8297 272Z" fill="#543F95"/>
<path d="M195.035 308.485L212.61 335.591L245.565 390.312L287.5 305.398L275.015 297.71L195.035 308.485Z" fill="#58468F"/>
<path d="M87.5215 299.676L152.542 390.133L223.469 333.202L87.5215 299.676Z" fill="#58468F"/>
<path d="M221.054 327.998L42.5069 471.398L219.549 449.92L255.606 380.701L221.054 327.998Z" fill="#6551A3"/>
<path d="M385.079 483.712L261.716 474.611L209.65 448.72L276.498 311.339L385.079 483.712Z" fill="#543F95"/>
<path d="M54.2548 470.577L42.4987 514.884L261.216 474.602L210.141 449.229L54.2548 470.577Z" fill="#543F95"/>
<path d="M104.395 110.379L179.509 133.661L237.115 186.65L161.984 164.367L104.395 110.379Z" fill="#545EFD"/>
<path d="M225.92 228.723L233.861 249.843L207.399 241.61L225.92 228.723Z" fill="#545EFD"/>
<path d="M299.059 249.214L279.25 237.875L287.978 224L309.881 229.874L334.139 244.81L334.054 249.81L299.059 249.214Z" fill="#403368"/>
<path d="M124.8 204.24L36.5215 131.726L140.402 169.001L181.166 183.197L209.162 183.673L305.731 209.822L395.037 251.348L212.287 205.73L124.8 204.24Z" fill="#2B2346"/>
</g>
</svg>
